HIERARCHY
ROOT Hips
{
	OFFSET	0.00	0.00	0.00
	CHANNELS 6 Xposition Yposition Zposition Zrotation Xrotation Yrotation
	JOINT Spine
	{
		OFFSET	 0.00	0.01	 0.00
		CHANNELS 3 Zrotation Xrotation Yrotation
		JOINT Spine1
		{
			OFFSET	 0.00	 2.45913012437421	 0.00
			CHANNELS 3 Zrotation Xrotation Yrotation
            JOINT Neck
            {
                OFFSET	 0.00	 2.48462964506057	 0.00
                CHANNELS 3 Zrotation Xrotation Yrotation
                JOINT Head
                {
                    OFFSET	 0.00	 0.927524780924562	 0.00
                    CHANNELS 3 Zrotation Xrotation Yrotation
                    End Site 
                    {
                        OFFSET	 0.00	 1.14999962169752	 0.00
                    }
                }
            }
			JOINT LeftShoulder
			{
				OFFSET	 0.00	 2.48462964506057	 0.00
				CHANNELS 3 Zrotation Xrotation Yrotation
				JOINT LeftUpArm
				{
					OFFSET	 0.00	 1.24881979654096	 0.00
					CHANNELS 3 Zrotation Xrotation Yrotation
					JOINT LeftForeArm
					{
						OFFSET	 0.00	2.59758046908119	 0.00
						CHANNELS 3 Zrotation Xrotation Yrotation
						JOINT LeftHand
						{
							OFFSET	 0.00	2.45542024364365	 0.00
							CHANNELS 3 Zrotation Xrotation Yrotation
							JOINT LeftHandThumb 
							{
								OFFSET	 0.00	0.00	 0.00
								CHANNELS 3 Zrotation Xrotation Yrotation
								End Site
								{
									OFFSET	 0.00	0.00	1.00000003353624
								}
							}
							JOINT L_Wrist_End 
							{
								OFFSET	 0.00	0.99999967115358	 0.00
								CHANNELS 3 Zrotation Xrotation Yrotation
								End Site 
								{
									OFFSET	 0.00	 0.00	 0.00
								}
							}
						}
					}
				}
			}
			JOINT RightShoulder
			{
				OFFSET	 0.00	 2.48462964506057	 0.00
				CHANNELS 3 Zrotation Xrotation Yrotation
				JOINT RightUpArm
				{
					OFFSET	 0.00	 1.24881979654096	 0.00
					CHANNELS 3 Zrotation Xrotation Yrotation
					JOINT RightForeArm
					{
						OFFSET	 0.00	2.59758046908119	 0.00
						CHANNELS 3 Zrotation Xrotation Yrotation
						JOINT RightHand
						{
							OFFSET	 0.00	2.45542024364365	 0.00
							CHANNELS 3 Zrotation Xrotation Yrotation
							JOINT RightHandThumb 
							{
								OFFSET	 0.00	0.00	 0.00
								CHANNELS 3 Zrotation Xrotation Yrotation
								End Site
								{
									OFFSET	 0.00	0.00	1.00000003353624
								}
							}
							JOINT R_Wrist_End 
							{
								OFFSET	 0.00	0.99999967115358	 0.00
								CHANNELS 3 Zrotation Xrotation Yrotation
								End Site 
								{
									OFFSET	 0.00	 0.00	 0.00
								}
							}
						}
					}
				}
			}
		}
	}
	JOINT LeftUpLeg
	{
		OFFSET	 1.2719394002717	 0.00	 0.00
		CHANNELS 3 Zrotation Xrotation Yrotation
		JOINT LeftLowLeg
		{
			OFFSET	 0.00	-4.3429100912261	 0.00
			CHANNELS 3 Zrotation Xrotation Yrotation
			JOINT LeftFoot
			{
				OFFSET	 0.00	-4.48767017425826	 0.00
				CHANNELS 3 Zrotation Xrotation Yrotation
				JOINT LeftToeBase
                {
                    OFFSET	 0.00	0.00	 1.51507020887566
                    CHANNELS 3 Zrotation Xrotation Yrotation
                    End Site 
                    {
                        OFFSET	 0.00	0.00	 0.75000010571191
                    }
                }
			}
		}
	}
	JOINT RightUpLeg
	{
		OFFSET	 -1.2719393604653	 0.00	 0.00
		CHANNELS 3 Zrotation Xrotation Yrotation
		JOINT RightLowLeg
		{
			OFFSET	 0.00	-4.3429100912261	 0.00
			CHANNELS 3 Zrotation Xrotation Yrotation
			JOINT RightFoot
			{
				OFFSET	 0.00	-4.48767017425826	 0.00
				CHANNELS 3 Zrotation Xrotation Yrotation
				JOINT RightToeBase
                {
                    OFFSET	 0.00	0.00	 1.51507020887566
                    CHANNELS 3 Zrotation Xrotation Yrotation
                    End Site 
                    {
                        OFFSET	 0.00	0.00	 0.749999965609858
                    }
                }   
			}
		}
	}
}
MOTION 
Frames:	17 
Frame Time: 0.02 
 3.246929931640625 5.484990234375 9.81302001953125 -152.871 79.9229 157.568 2.4897 -11.2662 -2.31776 0.952233 4.08307 -2.7933 -4.63053 40.9429 8.46393 12.4489 -45.4565 12.1028 -89.58602 -16.2547 -3.7634 -13.99 1.71177 -31.7421 0.0 20.4327 0.0 28.7065 -12.2221 28.1521 0.0 0.0 0.0 0.0 0.0 0.0 97.7296 -12.8572 0.961657 10.6084 1.9396 34.023 0.0 20.3189 0.0 -17.0396 -6.26418 -25.7792 0.0 0.0 0.0 0.0 0.0 0.0 4.89775 -7.21045 -2.59294 0.0 6.48455 0.0 -3.85794 4.6965 2.1537 0.0 -23.002289 0.0 4.37815 -4.83021 4.05019 0.0 6.04218 0.0 20.6575 4.7674 -10.6465 0.0 -23.7696 0.0 
  3.246929931640625 5.484990234375 9.81302001953125 -152.871 79.9229 157.568 2.4897 -11.2662 -2.31776 0.952233 4.08307 -2.7933 -4.63053 40.9429 8.46393 12.4489 -45.4565 12.1028 -89.58602 -16.2547 -3.7634 -13.99 1.71177 -31.7421 0.0 20.4327 0.0 28.7065 -12.2221 28.1521 0.0 0.0 0.0 0.0 0.0 0.0 97.7296 -12.8572 0.961657 10.6084 1.9396 34.023 0.0 20.3189 0.0 -17.0396 -6.26418 -25.7792 0.0 0.0 0.0 0.0 0.0 0.0 4.89775 -7.21045 -2.59294 0.0 6.48455 0.0 -3.85794 4.6965 2.1537 0.0 -23.002289 0.0 4.37815 -4.83021 4.05019 0.0 6.04218 0.0 20.6575 4.7674 -10.6465 0.0 -23.7696 0.0 
  3.2470001220703124 5.483770141601562 9.812639770507813 -152.833 79.9242 157.553 2.48599 -11.2665 -2.32629 0.965722 4.06837 -2.80063 -4.62631 40.948 8.47541 12.4672 -45.4067 12.1089 -89.59008 -16.2501 -3.78813 -13.9951 1.71463 -31.7504 0.0 20.4231 0.0 28.6555 -12.2539 28.2012 0.0 0.0 0.0 0.0 0.0 0.0 97.7368 -12.8562 0.953968 10.6096 1.92184 34.0526 0.0 20.3193 0.0 -17.0129 -6.19579 -25.8141 0.0 0.0 0.0 0.0 0.0 0.0 4.90045 -7.21678 -2.63145 0.0 6.51237 0.0 -3.86247 4.6705 2.16308 0.0 -22.99711 0.0 4.38179 -4.82177 4.01749 0.0 6.05911 0.0 20.6566 4.7454004 -10.6258 0.0 -23.73641 0.0 
  3.2470001220703124 5.483770141601562 9.812639770507813 -152.833 79.9242 157.553 2.48599 -11.2665 -2.32629 0.965722 4.06837 -2.80063 -4.62631 40.948 8.47541 12.4672 -45.4067 12.1089 -89.59008 -16.2501 -3.78813 -13.9951 1.71463 -31.7504 0.0 20.4231 0.0 28.6555 -12.2539 28.2012 0.0 0.0 0.0 0.0 0.0 0.0 97.7368 -12.8562 0.953968 10.6096 1.92184 34.0526 0.0 20.3193 0.0 -17.0129 -6.19579 -25.8141 0.0 0.0 0.0 0.0 0.0 0.0 4.90045 -7.21678 -2.63145 0.0 6.51237 0.0 -3.86247 4.6705 2.16308 0.0 -22.99711 0.0 4.38179 -4.82177 4.01749 0.0 6.05911 0.0 20.6566 4.7454004 -10.6258 0.0 -23.73641 0.0 
  3.2469601440429687 5.482680053710937 9.812509765625 -152.821 79.9302 157.553 2.46514 -11.2862 -2.34104 1.0017 4.11536 -2.80962 -4.65047 40.9135 8.52508 12.5044 -45.3999 12.1026 -89.607475 -16.2446 -3.79448 -13.9932 1.69809 -31.7268 0.0 20.3932 0.0 28.6965 -12.2119 28.239 0.0 0.0 0.0 0.0 0.0 0.0 97.72404 -12.8557 0.970231 10.6229 1.92923 34.0597 0.0 20.3216 0.0 -16.9891 -6.27227 -25.8365 0.0 0.0 0.0 0.0 0.0 0.0 4.90061 -7.21013 -2.61388 0.0 6.51747 0.0 -3.85778 4.6653004 2.13661 0.0 -22.989399 0.0 4.37992 -4.81992 3.9784 0.0 6.08266 0.0 20.6528 4.7409 -10.5933 0.0 -23.74753 0.0 
  3.246919860839844 5.48176025390625 9.812379760742187 -152.822 79.9275 157.562 2.46571 -11.2865 -2.34098 1.00162 4.11068 -2.80967 -4.60313 40.8984 8.47444 12.5203 -45.3899 12.1331 -89.60464 -16.2456 -3.76197 -13.9937 1.70336 -31.7962 0.0 20.4054 0.0 28.7238 -12.2415 28.2403 0.0 0.0 0.0 0.0 0.0 0.0 97.7303 -12.8556 0.949732 10.6063 1.90328 34.0274 0.0 20.3038 0.0 -16.9872 -6.25594 -25.8849 0.0 0.0 0.0 0.0 0.0 0.0 4.90256 -7.20406 -2.6103 0.0 6.50847 0.0 -3.85941 4.6632004 2.12111 0.0 -23.00931 0.0 4.38044 -4.8206 4.01246 0.0 6.09086 0.0 20.675 4.7214003 -10.614 0.0 -23.76471 0.0 
  3.246809997558594 5.4810302734375 9.812310180664063 -152.825 79.9161 157.564 2.46498 -11.2839 -2.34502 1.01838 4.09427 -2.81322 -4.59503 40.8787 8.47563 12.5304 -45.382 12.1483 -89.61253 -16.2732 -3.80701 -14.0064 1.7079 -31.7707 0.0 20.4245 0.0 28.7165 -12.2313 28.1676 0.0 0.0 0.0 0.0 0.0 0.0 97.73937 -12.859 0.969708 10.5846 1.9004 34.0518 0.0 20.2964 0.0 -17.0584 -6.29006 -25.9184 0.0 0.0 0.0 0.0 0.0 0.0 4.90958 -7.20728 -2.60436 0.0 6.50353 0.0 -3.8639 4.6569996 2.11147 0.0 -23.00772 0.0 4.383 -4.81556 4.00844 0.0 6.07069 0.0 20.6753 4.7277 -10.6052 0.0 -23.74827 0.0 
  3.246839904785156 5.480880126953125 9.812230224609374 -152.885 79.9069 157.618 2.4669 -11.2749 -2.34289 1.01558 4.06931 -2.81135 -4.58634 40.8656 8.47444 12.538 -45.378 12.1663 -89.62315 -16.2919 -3.8087 -13.9985 1.72317 -31.7638 0.0 20.4251 0.0 28.7044 -12.1945 28.2086 0.0 0.0 0.0 0.0 0.0 0.0 97.74812 -12.8658 0.963451 10.5831 1.89767 34.1383 0.0 20.2979 0.0 -17.076 -6.25783 -25.9232 0.0 0.0 0.0 0.0 0.0 0.0 4.90329 -7.22201 -2.60683 0.0 6.51271 0.0 -3.86064 4.6541996 2.12012 0.0 -23.00659 0.0 4.37952 -4.83067 4.04305 0.0 6.07891 0.0 20.6746 4.7066 -10.63 0.0 -23.73897 0.0 
  3.246839904785156 5.480880126953125 9.812230224609374 -152.885 79.9069 157.618 2.4669 -11.2749 -2.34289 1.01558 4.06931 -2.81135 -4.58634 40.8656 8.47444 12.538 -45.378 12.1663 -89.62315 -16.2919 -3.8087 -13.9985 1.72317 -31.7638 0.0 20.4251 0.0 28.7044 -12.1945 28.2086 0.0 0.0 0.0 0.0 0.0 0.0 97.74812 -12.8658 0.963451 10.5831 1.89767 34.1383 0.0 20.2979 0.0 -17.076 -6.25783 -25.9232 0.0 0.0 0.0 0.0 0.0 0.0 4.90329 -7.22201 -2.60683 0.0 6.51271 0.0 -3.86064 4.6541996 2.12012 0.0 -23.00659 0.0 4.37952 -4.83067 4.04305 0.0 6.07891 0.0 20.6746 4.7066 -10.63 0.0 -23.73897 0.0 
  3.2464199829101563 5.48030029296875 9.812150268554687 -152.92 79.9008 157.659 2.46459 -11.2743 -2.34994 1.01609 4.0674 -2.81786 -4.60329 40.8369 8.51433 12.5645 -45.3726 12.1725 -89.63783 -16.2813 -3.79632 -13.968 1.6994 -31.6859 0.0 20.4101 0.0 28.7116 -12.2111 28.2254 0.0 0.0 0.0 0.0 0.0 0.0 97.77047 -12.9017 0.981192 10.5682 1.9424 34.1466 0.0 20.2975 0.0 -17.0568 -6.24363 -25.9331 0.0 0.0 0.0 0.0 0.0 0.0 4.90253 -7.2291 -2.61284 0.0 6.5139 0.0 -3.86766 4.6544 2.11559 0.0 -23.004921 0.0 4.37748 -4.83535 3.99351 0.0 6.07771 0.0 20.6652 4.7181997 -10.5961 0.0 -23.76462 0.0 
  3.24614990234375 5.479970092773438 9.812169799804687 -152.961 79.8883 157.696 2.46528 -11.2679 -2.35165 1.01808 4.04581 -2.81954 -4.58973 40.8292 8.49669 12.566 -45.3832 12.182 -89.64578 -16.2614 -3.77836 -13.9523 1.66966 -31.6612 0.0 20.3984 0.0 28.684 -12.2228 28.2368 0.0 0.0 0.0 0.0 0.0 0.0 97.78725 -12.9194 0.980909 10.5479 1.96831 34.1216 0.0 20.2754 0.0 -17.0575 -6.24043 -25.9117 0.0 0.0 0.0 0.0 0.0 0.0 4.90284 -7.23423 -2.62431 0.0 6.50055 0.0 -3.86846 4.6583996 2.13011 0.0 -23.00238 0.0 4.37875 -4.84757 3.99935 0.0 6.07717 0.0 20.6598 4.7149 -10.6002 0.0 -23.75696 0.0 
  3.245979919433594 5.47958984375 9.81218017578125 -152.987 79.8831 157.706 2.47047 -11.2733 -2.3452 1.01257 4.06521 -2.8148 -4.5966 40.7931 8.5168 12.5804 -45.3853 12.185 -89.642235 -16.2632 -3.80532 -13.9743 1.66579 -31.7279 0.0 20.4044 0.0 28.6324 -12.274 28.189 0.0 0.0 0.0 0.0 0.0 0.0 97.78899 -12.907 0.972309 10.5557 1.9663 34.1039 0.0 20.2458 0.0 -17.0696 -6.22897 -25.9038 0.0 0.0 0.0 0.0 0.0 0.0 4.90327 -7.22788 -2.62046 0.0 6.48962 0.0 -3.8691 4.6570997 2.14394 0.0 -22.99983 0.0 4.37869 -4.85021 4.02676 0.0 6.0739 0.0 20.667 4.7103996 -10.6064 0.0 -23.749401 0.0 
  3.2454299926757812 5.479359741210938 9.812050170898438 -152.999 79.8803 157.708 2.46019 -11.263 -2.352 1.04294 4.0898 -2.81872 -4.61218 40.7218 8.54158 12.5564 -45.3806 12.1704 -89.658485 -16.2825 -3.80868 -14.0009 1.68753 -31.7947 0.0 20.3932 0.0 28.6323 -12.2854 28.1549 0.0 0.0 0.0 0.0 0.0 0.0 97.776 -12.9047 0.95766 10.5671 1.97706 34.0964 0.0 20.2197 0.0 -17.0272 -6.22809 -25.8188 0.0 0.0 0.0 0.0 0.0 0.0 4.9059 -7.24028 -2.58414 0.0 6.51357 0.0 -3.85556 4.6466 2.12883 0.0 -23.004929 0.0 4.3807 -4.847 4.0415 0.0 6.05989 0.0 20.6685 4.7152004 -10.6099 0.0 -23.771591 0.0 
  3.2450799560546875 5.4791802978515625 9.811929931640625 -153.012 79.8846 157.719 2.45885 -11.247 -2.35167 1.04005 4.08498 -2.81799 -4.6144 40.7003 8.55083 12.5565 -45.3787 12.1755 -89.65409 -16.2683 -3.7907 -13.9798 1.66775 -31.6141 0.0 20.3645 0.0 28.6831 -12.231 28.2349 0.0 0.0 0.0 0.0 0.0 0.0 97.78601 -12.9143 0.959341 10.563 1.98365 34.1 0.0 20.2256 0.0 -17.0503 -6.25235 -25.8224 0.0 0.0 0.0 0.0 0.0 0.0 4.9046 -7.24119 -2.59561 0.0 6.52518 0.0 -3.86895 4.6384 2.13556 0.0 -23.000889 0.0 4.37902 -4.84532 4.02675 0.0 6.0667 0.0 20.6803 4.7074003 -10.5847 0.0 -23.74604 0.0 
  3.2447799682617187 5.478909912109375 9.811950073242187 -152.98 79.9001 157.686 2.46026 -11.2352 -2.35562 1.03884 4.11438 -2.82292 -4.62837 40.6655 8.57191 12.5494 -45.3832 12.1683 -89.64027 -16.2331 -3.76707 -13.9763 1.60027 -31.5361 0.0 20.3916 0.0 28.6119 -12.2438 28.25 0.0 0.0 0.0 0.0 0.0 0.0 97.79098 -12.9261 0.985117 10.5647 2.00745 34.1065 0.0 20.2248 0.0 -17.057 -6.24566 -25.85 0.0 0.0 0.0 0.0 0.0 0.0 4.90427 -7.22323 -2.6235 0.0 6.52681 0.0 -3.8782 4.6334 2.16098 0.0 -23.00667 0.0 4.38055 -4.82627 4.01696 0.0 6.06249 0.0 20.6691 4.7158003 -10.5839 0.0 -23.768791 0.0 
  3.2441400146484374 5.4784002685546875 9.812050170898438 -153.012 79.9053 157.712 2.44794 -11.2143 -2.36441 1.04613 4.12206 -2.82836 -4.63761 40.6199 8.58678 12.5266 -45.3897 12.1694 -89.62903 -16.2134 -3.74709 -13.9718 1.54746 -31.6421 0.0 20.4129 0.0 28.5767 -12.2236 28.305 0.0 0.0 0.0 0.0 0.0 0.0 97.80902 -12.9386 0.994147 10.5256 2.02445 34.0761 0.0 20.2042 0.0 -17.0663 -6.19576 -25.8746 0.0 0.0 0.0 0.0 0.0 0.0 4.90124 -7.21981 -2.56117 0.0 6.53125 0.0 -3.84557 4.6445 2.12604 0.0 -23.008259 0.0 4.37781 -4.82623 4.01909 0.0 6.07173 0.0 20.6544 4.7113 -10.5782 0.0 -23.75654 0.0 
  3.2436099243164063 5.478259887695312 9.812020263671876 -153.029 79.9006 157.723 2.43529 -11.2057 -2.36313 1.06013 4.11872 -2.82306 -4.60012 40.6184 8.52956 12.4854 -45.3913 12.1918 -89.63051 -16.2315 -3.77226 -13.9786 1.58108 -31.7703 0.0 20.4148 0.0 28.6797 -12.2339 28.295 0.0 0.0 0.0 0.0 0.0 0.0 97.81436 -12.9381 0.992185 10.5003 2.01205 34.0582 0.0 20.1989 0.0 -17.0718 -6.21387 -25.8812 0.0 0.0 0.0 0.0 0.0 0.0 4.9028 -7.21743 -2.59429 0.0 6.52061 0.0 -3.86692 4.6433 2.15654 0.0 -22.995201 0.0 4.38031 -4.8276 4.04141 0.0 6.06599 0.0 20.6675 4.7094 -10.5886 0.0 -23.75815 0.0 
